<?xml version="1.0" standalone="no"?>
<!DOCTYPE svg PUBLIC "-//W3C//DTD SVG 20010904//EN"
 "http://www.w3.org/TR/2001/REC-SVG-20010904/DTD/svg10.dtd">
<svg version="1.0" xmlns="http://www.w3.org/2000/svg"
 width="300.000000pt" height="300.000000pt" viewBox="0 0 300.000000 300.000000"
 preserveAspectRatio="xMidYMid meet">
<metadata>
Created by potrace 1.10, written by Peter Selinger 2001-2011
</metadata>
<g transform="translate(0.000000,300.000000) scale(0.100000,-0.100000)"
fill="#000000" stroke="none">
<path d="M1535 2692 c-8 -69 13 -168 50 -241 47 -94 45 -170 -5 -196 -40 -21
-57 -19 -85 10 -33 32 -33 75 2 109 28 29 26 44 -5 27 -34 -18 -81 -80 -92
-122 -18 -66 2 -129 62 -195 74 -80 79 -82 145 -42 210 126 224 292 44 507
-75 89 -91 119 -91 166 0 56 -17 41 -25 -23z m126 -185 c61 -76 88 -134 96
-207 9 -94 -35 -165 -148 -235 l-61 -37 -26 19 c-15 11 -44 42 -64 68 -46 61
-57 124 -33 181 11 26 19 34 22 24 19 -56 37 -80 68 -90 27 -9 40 -8 64 4 72
38 77 88 21 226 -21 54 -42 120 -46 147 l-6 48 31 -43 c17 -23 54 -71 82 -105z"/>
<path d="M2334 2366 c-54 -46 -101 -121 -125 -196 -47 -153 -105 -203 -173
-149 -55 43 -23 129 49 129 45 0 45 16 0 24 -39 8 -105 -7 -142 -31 -61 -40
-97 -162 -76 -258 8 -37 12 -41 53 -52 71 -18 188 -16 235 6 47 21 101 79 126
136 19 43 39 176 39 262 0 60 11 94 40 123 38 38 16 42 -26 6z m-35 -186 c-4
-69 -15 -144 -23 -167 -28 -80 -81 -140 -142 -163 -59 -23 -227 -7 -245 22 -5
7 -9 42 -9 78 0 103 46 179 119 200 l31 9 -20 -26 c-24 -31 -26 -80 -5 -110 9
-13 33 -28 55 -34 33 -10 43 -9 64 4 41 27 72 78 100 162 22 68 72 164 80 153
1 -2 -1 -59 -5 -128z"/>
<path d="M2047 1954 c7 -18 91 -84 107 -84 12 1 -93 100 -106 100 -4 0 -5 -7
-1 -16z"/>
<path d="M2130 1937 c23 -22 38 -30 42 -23 9 14 -19 42 -52 51 -23 6 -23 4 10
-28z"/>
<path d="M643 2321 c20 -22 38 -55 41 -73 3 -18 13 -76 21 -128 33 -198 122
-300 262 -300 54 0 185 29 201 44 15 16 5 151 -16 198 -36 82 -127 129 -211
110 -43 -10 -53 -30 -12 -24 24 3 37 -2 61 -26 16 -17 30 -40 30 -52 0 -31
-44 -70 -78 -70 -47 0 -77 33 -131 144 -41 84 -62 114 -111 160 -72 66 -112
78 -57 17z m138 -156 c12 -27 27 -61 33 -75 6 -13 29 -44 52 -67 30 -32 48
-43 71 -43 32 0 76 29 94 61 14 26 -5 84 -34 104 -18 13 -19 15 -4 15 65 0
139 -71 156 -150 13 -59 14 -110 3 -126 -14 -21 -106 -44 -176 -44 -152 1
-225 91 -260 322 -8 51 -17 102 -21 113 -14 39 64 -60 86 -110z"/>
<path d="M770 2075 c14 -15 34 -32 45 -37 16 -9 16 -6 -5 17 -14 15 -34 32
-45 37 -16 9 -16 6 5 -17z"/>
<path d="M1002 1921 c29 -27 55 -47 57 -45 10 9 -22 50 -54 72 -58 37 -59 25
-3 -27z"/>
<path d="M904 1938 c10 -16 23 -28 28 -28 6 0 5 6 -2 15 -7 8 -8 15 -2 15 16
0 33 -26 26 -43 -3 -8 -1 -18 5 -22 7 -3 8 0 5 9 -3 9 -2 16 3 16 15 0 44 -36
36 -43 -3 -4 2 -7 12 -7 15 0 6 14 -35 55 -30 31 -56 51 -58 45 -3 -7 -9 -6
-20 2 -12 10 -12 7 2 -14z"/>
<path d="M1413 1934 c-136 -28 -255 -123 -316 -251 -30 -64 -32 -74 -32 -184
0 -113 1 -117 37 -190 46 -93 122 -168 215 -212 64 -30 74 -32 184 -32 113 0
117 1 190 37 94 46 168 122 212 215 25 56 32 83 35 155 7 144 -33 252 -125
339 -140 132 -315 141 -472 23 -70 -52 -136 -138 -153 -198 -16 -59 -13 -167
8 -228 23 -70 91 -138 167 -167 68 -25 161 -28 212 -7 47 20 116 92 145 151
84 172 -24 397 -190 397 -137 0 -246 -147 -196 -266 28 -67 115 -108 185 -88
81 25 120 85 100 156 -12 44 -33 60 -75 60 -40 0 -65 -26 -61 -64 2 -21 7 -25
36 -26 42 0 53 -21 17 -30 -41 -10 -75 3 -82 31 -10 40 4 74 39 95 48 30 83
26 123 -14 29 -29 34 -41 34 -82 0 -76 -55 -137 -143 -158 -75 -18 -174 50
-197 134 -48 177 147 331 315 250 131 -64 192 -264 121 -399 -36 -69 -113
-144 -171 -166 -33 -13 -64 -16 -117 -13 -169 11 -289 130 -305 302 -15 169
82 313 271 401 38 18 65 35 60 37 -5 3 -37 -1 -71 -8z m-70 -55 c-77 -44 -166
-147 -186 -211 -33 -107 -28 -197 15 -298 24 -56 48 -82 118 -130 60 -40 124
-60 193 -60 183 0 353 222 305 399 -53 194 -212 289 -363 217 -65 -31 -104
-73 -125 -136 -22 -66 -17 -119 17 -183 36 -67 86 -97 164 -97 47 0 65 5 105
33 63 41 87 86 80 150 -10 88 -66 133 -146 116 -45 -10 -90 -60 -90 -100 0
-65 80 -102 131 -60 33 27 16 57 -30 53 -25 -3 -31 0 -31 15 0 47 57 58 89 17
40 -51 17 -119 -50 -150 -92 -41 -200 23 -201 119 -2 99 97 198 197 197 32 -1
97 -35 127 -66 72 -77 92 -211 45 -307 -29 -58 -85 -120 -131 -145 -43 -22
-139 -21 -201 2 -125 47 -177 130 -179 280 -1 110 16 149 106 242 141 147 326
163 477 44 53 -42 109 -127 130 -199 7 -25 13 -81 13 -125 0 -273 -249 -471
-515 -409 -251 57 -391 314 -306 558 37 105 98 175 200 230 79 43 114 46 42 4z"/>
<path d="M1821 1634 c13 -14 33 -30 44 -36 12 -6 6 4 -14 26 -19 20 -39 36
-45 36 -5 0 1 -12 15 -26z"/>
<path d="M1451 1324 c18 -19 33 -37 32 -40 -2 -2 0 -4 5 -5 4 0 16 -8 27 -17
11 -9 -5 9 -35 41 -30 31 -56 57 -59 57 -3 0 11 -16 30 -36z"/>
<path d="M1505 1316 c28 -24 54 -41 59 -38 12 7 -74 82 -94 82 -8 0 8 -20 35
-44z"/>
<path d="M1204 1262 c38 -39 72 -71 75 -70 19 2 24 -4 11 -13 -12 -8 -11 -9 5
-7 12 2 19 -2 17 -10 -1 -8 2 -11 9 -7 6 4 25 -6 43 -21 18 -16 6 -3 -27 28
-32 32 -62 56 -66 55 -3 -1 -6 0 -6 3 0 6 -81 79 -110 100 -11 7 11 -18 49
-58z"/>
<path d="M1402 1144 c26 -26 50 -45 54 -41 10 10 -34 56 -71 74 -26 13 -24 9
17 -33z"/>
<path d="M682 1669 c-38 -19 -98 -86 -87 -97 2 -3 18 7 35 22 36 30 36 30 78
15 42 -14 61 -61 41 -98 -8 -14 -28 -32 -43 -40 -33 -15 -79 -5 -196 45 -92
39 -260 47 -260 13 0 -6 9 -8 20 -4 35 11 86 -14 177 -87 115 -92 171 -120
253 -126 75 -5 118 9 172 57 36 31 118 148 118 168 0 22 -85 105 -131 128 -60
31 -120 32 -177 4z m161 -15 c35 -18 127 -103 127 -118 0 -15 -66 -110 -101
-144 -46 -45 -89 -62 -156 -62 -75 0 -145 32 -238 109 -38 32 -86 68 -105 79
l-34 21 39 -5 c59 -9 123 -29 188 -59 103 -48 186 -31 206 41 17 61 -11 102
-77 114 l-37 6 30 17 c38 21 117 22 158 1z"/>
<path d="M2139 1665 c-45 -23 -129 -107 -129 -128 0 -20 82 -137 118 -168 54
-48 97 -62 172 -57 82 6 138 34 252 126 89 72 143 98 178 87 11 -4 20 -2 20 4
0 34 -168 26 -260 -13 -117 -50 -163 -60 -196 -45 -15 8 -35 26 -43 40 -20 36
-1 84 40 98 34 12 55 6 86 -22 33 -29 36 -17 8 25 -51 75 -159 98 -246 53z
m174 -12 l32 -17 -38 -7 c-70 -12 -101 -72 -68 -132 35 -63 108 -66 231 -8 36
17 92 34 125 39 57 9 59 9 35 -7 -13 -9 -56 -43 -95 -75 -38 -33 -98 -72 -133
-89 -55 -25 -72 -29 -131 -25 -89 5 -133 33 -195 128 -47 71 -47 72 -30 98 22
35 71 78 109 97 40 20 119 19 158 -2z"/>
<path d="M2339 1406 c13 -14 30 -22 38 -19 11 4 7 10 -14 24 -39 26 -51 24
-24 -5z"/>
<path d="M1923 1194 c-25 -6 -29 -16 -42 -115 -15 -106 8 -187 66 -240 70 -64
117 -79 281 -89 108 -7 139 -13 167 -30 19 -12 35 -26 35 -31 0 -5 5 -9 10 -9
22 0 8 26 -40 71 -55 54 -117 88 -201 112 -102 30 -151 80 -135 140 8 34 49
61 78 54 41 -11 59 -32 65 -75 8 -58 23 -42 23 24 0 70 -28 126 -81 161 -35
23 -53 27 -122 29 -45 1 -92 0 -104 -2z m196 -34 c45 -23 75 -56 89 -97 l11
-33 -29 22 c-59 43 -134 11 -146 -63 -5 -29 -1 -41 21 -67 32 -39 64 -56 148
-82 57 -18 157 -72 157 -85 0 -4 -3 -4 -7 -2 -5 3 -53 8 -108 11 -138 9 -194
22 -256 59 -58 35 -93 84 -103 148 -5 33 10 188 19 198 2 2 19 6 37 10 51 10
127 2 167 -19z"/>
<path d="M1946 1018 c7 -18 64 -62 64 -50 0 5 -16 22 -35 36 -19 15 -32 21
-29 14z"/>
<path d="M971 1124 c-75 -38 -106 -88 -106 -170 0 -37 6 -69 13 -76 9 -9 12
-4 12 28 0 41 23 73 63 87 39 14 87 -32 87 -85 0 -30 -68 -91 -126 -112 -27
-10 -70 -32 -97 -48 -52 -33 -137 -122 -137 -144 0 -21 10 -17 32 12 27 33 54
43 168 59 181 26 272 75 316 168 30 65 31 126 3 229 l-21 78 -77 0 c-63 0 -87
-5 -130 -26z m174 7 c17 -1 24 -13 38 -65 36 -136 16 -223 -65 -289 -58 -46
-109 -64 -231 -82 -56 -9 -110 -18 -121 -21 -53 -17 78 78 136 98 100 35 168
107 154 162 -18 72 -102 101 -151 51 l-25 -24 0 23 c0 28 36 82 72 109 31 23
105 44 145 41 15 -1 37 -3 48 -3z"/>
<path d="M1508 963 c-123 -102 -149 -225 -66 -319 33 -37 66 -59 75 -50 3 3
-6 18 -20 32 -35 34 -35 77 -2 109 28 29 45 31 85 10 51 -26 52 -102 4 -197
-35 -69 -57 -180 -49 -245 7 -59 25 -72 25 -19 0 51 12 73 86 161 147 175 170
321 68 429 -33 35 -148 116 -165 116 -4 0 -22 -12 -41 -27z m102 -29 c80 -53
110 -83 131 -132 41 -94 12 -194 -96 -328 -38 -48 -75 -97 -82 -108 -12 -20
-12 -20 -13 5 0 35 27 125 57 183 14 27 27 72 30 101 5 47 3 55 -24 85 -24 27
-38 34 -67 34 -50 0 -90 -40 -90 -89 0 -19 -2 -35 -4 -35 -2 0 -12 21 -24 46
-24 56 -19 108 17 170 23 39 87 104 103 104 4 0 32 -16 62 -36z"/>
</g>
</svg>
