<?xml version="1.0" standalone="no"?>
<!DOCTYPE svg PUBLIC "-//W3C//DTD SVG 20010904//EN"
 "http://www.w3.org/TR/2001/REC-SVG-20010904/DTD/svg10.dtd">
<svg version="1.0" xmlns="http://www.w3.org/2000/svg"
 width="300.000000pt" height="160.000000pt" viewBox="0 0 300.000000 160.000000"
 preserveAspectRatio="xMidYMid meet">
<metadata>
Created by potrace 1.10, written by Peter Selinger 2001-2011
</metadata>
<g transform="translate(0.000000,160.000000) scale(0.100000,-0.100000)"
fill="#000000" stroke="none">
<path d="M1676 1566 c-4 -19 -13 -40 -22 -47 -10 -8 -13 -21 -8 -42 4 -19 2
-27 -4 -23 -5 3 -13 -1 -16 -10 -3 -8 -2 -12 4 -9 6 3 10 1 10 -4 0 -6 -4 -11
-9 -11 -5 0 -7 -10 -3 -22 3 -13 1 -19 -5 -15 -12 8 -27 -38 -18 -53 4 -6 2
-10 -3 -10 -5 0 -10 -6 -11 -12 -1 -7 -3 -24 -5 -38 -2 -14 -7 -33 -11 -42 -4
-9 -3 -22 1 -29 4 -8 3 -9 -4 -5 -7 4 -13 0 -14 -11 -3 -47 -2 -83 3 -83 3 0
24 73 47 163 22 89 52 201 66 250 13 48 21 87 16 87 -4 0 -11 -15 -14 -34z"/>
<path d="M1436 1425 c6 -200 14 -315 23 -315 4 0 6 42 5 93 -2 89 -2 89 4 20
4 -39 11 -75 16 -80 13 -13 -5 136 -20 166 -8 14 -14 55 -15 91 -1 36 -5 90
-9 120 -6 37 -7 5 -4 -95z"/>
<path d="M1110 1434 c0 -3 40 -72 89 -153 48 -80 96 -162 106 -181 10 -19 20
-30 22 -24 4 11 -45 98 -145 263 -29 46 -52 88 -52 93 0 4 -4 8 -10 8 -5 0
-10 -3 -10 -6z"/>
<path d="M1099 1188 c113 -114 154 -149 162 -141 9 9 3 22 -25 54 -20 23 -36
46 -36 51 0 4 -5 8 -11 8 -7 0 -5 -10 6 -26 9 -14 15 -27 13 -29 -2 -2 -57 50
-123 115 -66 66 -124 120 -128 120 -4 0 60 -68 142 -152z"/>
<path d="M1240 1336 c0 -9 102 -229 112 -241 21 -25 3 24 -47 127 -55 110 -65
128 -65 114z"/>
<path d="M1684 1304 c-9 -21 -31 -72 -50 -112 -18 -41 -29 -72 -23 -70 13 4
102 209 94 216 -2 3 -12 -12 -21 -34z"/>
<path d="M1531 1248 c-7 -46 -14 -98 -18 -115 -3 -18 -1 -33 4 -33 5 0 15 52
24 115 8 63 12 115 8 115 -4 0 -12 -37 -18 -82z"/>
<path d="M1141 1293 c7 -22 151 -225 156 -220 3 3 -28 52 -68 109 -75 108 -94
132 -88 111z"/>
<path d="M876 1258 c10 -11 73 -64 139 -116 163 -129 168 -135 58 -65 -29 19
-53 31 -53 28 0 -8 107 -76 124 -79 8 -1 26 -12 40 -25 14 -13 26 -18 30 -12
4 5 -62 64 -147 130 -84 66 -161 129 -171 140 -11 12 -24 21 -29 21 -6 0 -2
-10 9 -22z"/>
<path d="M1320 1256 c0 -4 11 -35 24 -69 13 -34 27 -71 31 -82 5 -13 9 -16 12
-7 3 7 -8 43 -23 80 -26 64 -44 95 -44 78z"/>
<path d="M1391 1251 c-2 -26 23 -141 30 -141 4 0 5 17 2 38 -8 47 -31 122 -32
103z"/>
<path d="M1811 1233 c-12 -14 -19 -28 -16 -31 3 -3 6 -3 8 -1 1 2 13 16 26 32
14 15 20 27 13 27 -6 0 -20 -12 -31 -27z"/>
<path d="M1740 1221 c0 -5 -17 -21 -37 -37 -31 -23 -35 -25 -30 -8 7 18 6 18
-9 -1 -29 -37 -68 -130 -66 -156 1 -15 -2 -37 -8 -50 -9 -21 -10 -19 -5 11 4
31 1 38 -28 58 -38 26 -80 28 -156 8 -60 -17 -132 -60 -128 -79 1 -7 -6 -11
-17 -9 -10 2 -15 -1 -12 -7 4 -6 -1 -25 -10 -43 -18 -33 -21 -126 -8 -209 5
-34 4 -37 -26 -43 -17 -3 -29 -10 -26 -14 3 -5 -6 -14 -20 -21 -35 -16 -44
-13 -14 4 14 8 21 14 16 15 -24 1 -78 -49 -98 -90 -12 -25 -22 -46 -23 -48 -5
-7 -105 -42 -105 -37 0 3 19 15 43 25 35 17 21 18 -20 3 -9 -4 -13 7 -14 33 0
22 -4 48 -8 59 -10 23 10 69 33 78 8 3 17 18 20 34 l6 28 93 -2 92 -1 -92 10
-93 10 0 43 c0 53 -32 99 -62 89 -12 -3 -18 -2 -15 3 3 5 -13 10 -36 12 -23 1
-51 3 -62 5 -17 2 -125 -59 -125 -71 0 -2 4 -2 9 1 5 4 12 0 14 -6 4 -10 6
-10 6 0 1 6 6 12 12 12 7 0 17 7 23 15 14 19 115 27 146 12 13 -7 25 -18 28
-26 3 -8 0 -11 -7 -7 -7 5 -9 1 -4 -11 6 -15 4 -16 -9 -5 -11 9 -18 10 -23 2
-3 -5 0 -10 9 -10 19 0 29 -50 21 -101 -5 -28 -4 -39 3 -35 6 4 10 34 9 70 -1
35 1 62 5 60 4 -3 6 3 3 13 -3 10 2 3 11 -16 10 -22 13 -44 8 -60 -4 -14 -7
-29 -6 -33 1 -5 -3 -8 -10 -8 -6 0 -8 -3 -5 -6 3 -4 2 -15 -4 -25 -17 -32 -99
-23 -99 11 0 29 -46 77 -80 84 -54 10 -145 -51 -125 -84 4 -6 -12 -10 -37 -10
-51 0 -169 -37 -181 -57 -4 -7 -13 -13 -20 -13 -8 0 -6 4 3 11 12 9 12 10 -3
5 -10 -3 -21 -6 -23 -6 -3 0 -2 -4 1 -10 3 -5 1 -10 -4 -10 -23 0 -16 90 10
141 10 20 15 40 11 44 -4 3 -2 5 3 4 6 -2 27 13 47 33 21 20 48 38 60 40 19 2
22 8 20 31 -3 28 5 41 48 70 27 19 44 22 35 7 -9 -15 7 -12 29 5 38 29 93 15
133 -33 12 -14 25 -23 29 -19 4 4 -7 20 -24 37 -18 16 -28 30 -23 30 5 0 23
-16 40 -35 17 -20 31 -31 31 -25 0 7 -13 25 -29 41 -22 21 -39 29 -65 29 -20
0 -36 4 -36 8 0 5 -28 4 -62 -1 -56 -10 -67 -15 -109 -60 -68 -73 -80 -84
-126 -123 -35 -29 -47 -49 -63 -102 -13 -42 -17 -68 -10 -70 5 -2 10 -13 10
-23 0 -11 5 -17 10 -14 6 3 10 1 10 -4 0 -6 -6 -11 -14 -11 -7 0 -20 -8 -27
-17 -12 -15 -12 -16 1 -8 8 4 0 -8 -19 -28 -19 -20 -36 -43 -37 -49 -9 -60
-28 -136 -39 -148 -6 -8 -15 -22 -19 -30 -4 -8 2 -4 13 10 l21 25 -11 -32 c-6
-18 -15 -30 -21 -27 -6 4 -8 -1 -3 -15 7 -24 2 -26 -27 -10 -15 8 -31 7 -64
-6 -48 -18 -67 -44 -78 -108 -8 -44 -2 -51 74 -91 50 -26 106 -45 80 -27 -18
13 -16 13 94 11 54 -1 86 2 82 8 -8 13 55 25 139 25 56 0 78 -5 110 -24 37
-22 50 -24 185 -24 80 0 165 2 188 4 41 4 42 5 21 16 -21 12 -21 12 7 12 16 0
43 2 59 6 27 6 26 6 -5 -7 -19 -8 -28 -15 -19 -15 8 -1 38 10 64 24 42 21 51
22 65 11 23 -21 115 -44 206 -52 89 -7 199 10 187 28 -4 8 0 9 12 4 10 -4 21
-2 24 3 4 5 42 19 86 32 97 26 98 27 106 25 4 0 17 8 29 19 22 20 22 20 37 0
15 -19 15 -19 9 5 -5 20 -3 19 8 -5 9 -20 34 -42 68 -60 49 -28 62 -30 163
-32 107 -2 110 -2 138 25 16 15 38 46 48 70 l18 42 58 -5 c32 -3 83 -10 113
-15 30 -5 106 -12 169 -15 63 -3 126 -8 140 -10 23 -5 24 -4 6 5 -14 7 10 9
84 8 91 -2 105 0 117 17 19 25 18 34 -8 75 -12 19 -23 40 -24 47 -7 42 -67 83
-120 83 -13 0 -24 4 -24 9 0 6 -16 27 -36 48 -20 21 -33 31 -29 23 5 -11 3
-11 -7 1 -18 23 -84 49 -120 49 -27 0 -30 3 -24 25 21 82 -103 195 -214 195
-45 0 -46 1 -24 35 8 13 18 48 21 78 6 59 -11 102 -49 126 -30 19 -106 16
-129 -5 -10 -9 -22 -14 -26 -11 -3 4 -1 7 5 7 6 0 14 9 17 20 4 11 11 17 17
14 8 -5 9 -1 4 11 -6 16 -4 16 10 4 16 -13 16 -10 10 36 -10 65 -42 129 -62
121 -9 -3 -12 -1 -9 4 9 14 -58 13 -92 -2 -15 -6 -40 -22 -54 -36 l-27 -23
-28 26 c-45 42 -91 57 -164 53 -44 -2 -64 -7 -63 -15 2 -7 -4 -10 -13 -6 -10
3 -31 -11 -60 -41 -46 -49 -57 -45 -24 9 11 18 40 43 64 56 40 21 69 59 45 59
-5 0 -9 -4 -9 -9z m164 -95 c15 -13 26 -32 27 -42 0 -11 4 -28 9 -39 7 -14 8
-8 3 19 -8 56 13 38 32 -26 21 -72 19 -87 -17 -144 -18 -27 -31 -52 -30 -56 1
-5 -7 -8 -18 -8 -47 0 -150 -76 -150 -111 0 -9 11 -24 25 -33 14 -9 25 -25 25
-36 0 -11 4 -20 10 -20 5 0 7 7 3 16 -3 9 0 20 7 24 17 10 -26 54 -46 46 -12
-5 -12 -2 -3 17 25 47 107 87 188 92 42 3 47 2 21 -3 l-35 -8 45 -6 c32 -5 52
-15 69 -35 14 -15 28 -27 33 -26 9 3 16 -26 21 -82 3 -40 3 -40 11 -11 10 34
-11 111 -31 111 -6 0 -15 4 -20 9 -5 5 -3 6 5 2 6 -4 12 -3 12 1 0 10 -80 63
-95 63 -6 0 -8 24 -6 67 4 59 6 63 11 33 6 -27 8 -29 9 -10 0 14 -3 39 -8 57
-6 21 -6 33 1 35 6 2 5 14 -3 31 -11 24 -10 29 7 42 10 8 27 15 37 15 9 0 17
4 17 8 0 4 17 7 38 5 35 -2 36 -2 7 6 -30 9 -30 9 -4 10 18 1 32 -7 43 -24 21
-31 21 -57 0 -27 -8 12 -23 22 -32 21 -14 0 -14 -2 -2 -6 23 -9 67 -57 73 -79
3 -14 5 -11 6 9 0 15 -6 42 -16 60 -15 30 -15 31 1 18 50 -41 39 -96 -33 -175
-34 -37 -39 -46 -18 -33 25 16 27 16 27 1 0 -16 2 -15 20 1 13 12 41 20 78 23
53 4 56 3 37 -11 -20 -16 -20 -16 3 -10 36 9 52 -13 51 -71 -1 -28 -4 -40 -6
-26 -8 40 -42 80 -69 80 -13 0 -24 -5 -24 -11 0 -6 7 -8 16 -5 26 10 44 -13
45 -58 l2 -41 6 35 7 35 5 -43 c4 -36 1 -46 -15 -58 -11 -8 -26 -14 -33 -14
-7 0 -13 -5 -13 -11 0 -6 7 -8 18 -4 13 5 14 4 5 -6 -10 -10 -15 -9 -27 0 -13
11 -22 9 -50 -8 -38 -24 -64 -51 -48 -51 5 0 15 7 23 16 17 20 69 47 69 35 0
-5 -7 -12 -16 -15 -8 -3 -13 -10 -9 -15 3 -6 17 -4 33 5 29 15 158 20 164 6 2
-5 21 -16 43 -24 22 -9 39 -22 37 -28 -1 -6 1 -9 6 -6 20 12 62 -63 62 -110 0
-43 -28 -29 -32 16 -2 22 -6 39 -11 38 -4 -2 -16 12 -27 30 -25 41 -74 62
-137 61 -52 -1 -46 -4 30 -14 55 -7 97 -41 114 -90 6 -16 14 -38 18 -48 5 -12
2 -17 -11 -17 -11 0 -26 -5 -34 -11 -11 -8 -6 -9 20 -5 l35 6 -34 -16 c-18 -8
-31 -17 -28 -20 3 -3 14 -1 25 5 29 15 65 14 57 -1 -4 -7 3 -2 14 11 12 13 21
19 21 13 0 -5 19 -12 43 -14 47 -6 131 -53 122 -68 -3 -6 -1 -10 4 -10 19 0
12 -28 -9 -35 -23 -7 -44 -40 -37 -58 3 -7 9 0 15 14 9 23 39 45 48 36 2 -1
-1 -19 -5 -40 -11 -48 -5 -47 15 3 15 37 19 40 53 40 20 0 42 -5 49 -12 14
-14 16 -74 3 -82 -12 -8 -20 -66 -9 -66 4 0 8 13 8 28 0 34 7 43 26 35 8 -3
14 -19 14 -40 0 -22 4 -32 11 -27 6 3 9 15 6 25 -3 11 -1 17 4 13 5 -3 9 -15
10 -27 0 -21 1 -21 10 -2 8 19 9 19 6 1 -3 -25 -20 -28 -157 -25 -63 1 -128 2
-145 1 -47 0 -327 18 -356 24 -15 3 -29 14 -32 24 -5 18 -62 60 -82 60 -5 0 4
-8 20 -18 36 -22 60 -50 51 -59 -3 -3 -6 -1 -6 5 0 6 -19 22 -42 35 -33 19
-55 24 -93 22 -74 -5 -105 -11 -118 -24 -9 -10 -6 -10 13 -3 36 14 174 10 192
-6 9 -7 21 -26 28 -42 10 -25 9 -34 -7 -62 -10 -18 -33 -40 -51 -49 -17 -9
-28 -20 -24 -24 4 -4 -4 -5 -18 0 -14 4 -50 8 -81 10 -31 2 -75 12 -98 23 -49
24 -54 20 -8 -8 17 -11 27 -20 22 -20 -14 0 -53 27 -92 63 -36 34 -51 80 -32
103 6 8 9 17 5 21 -9 9 -16 -1 -31 -44 -9 -25 -20 -38 -32 -39 -10 -1 -29 -6
-41 -13 -12 -6 -22 -9 -22 -7 0 3 -36 -8 -80 -24 -44 -16 -80 -27 -80 -25 0 3
39 25 88 49 48 25 84 45 80 45 -15 2 -121 -50 -165 -79 -54 -37 -131 -56 -235
-59 -103 -3 -154 12 -200 60 -42 43 -46 64 -21 112 15 31 15 31 -2 17 -17 -14
-17 -13 -7 6 6 11 18 26 26 34 14 10 16 10 16 -6 0 -16 2 -15 13 5 6 14 18 26
26 29 9 3 11 0 5 -9 -6 -11 -5 -12 7 -3 15 12 86 12 109 0 8 -4 6 0 -4 8 -11
9 -34 16 -52 16 -18 0 -36 5 -40 11 -5 9 9 10 50 7 68 -6 65 3 -4 12 -29 4
-50 2 -50 -3 0 -5 -8 -6 -17 -3 -10 4 -14 4 -10 0 4 -4 -6 -15 -23 -25 -16
-10 -41 -36 -56 -59 -27 -40 -28 -60 -9 -125 5 -17 -1 -24 -32 -39 -44 -21
-52 -23 -158 -35 -117 -14 -166 -11 -205 10 l-35 19 25 -21 c21 -19 22 -21 5
-16 -11 3 -34 8 -52 12 -61 12 -93 108 -48 145 17 14 31 -5 17 -23 -19 -25
-22 -65 -6 -81 8 -9 18 -16 22 -16 3 0 1 5 -6 12 -32 32 8 117 67 140 19 8 22
12 11 16 -8 3 -21 13 -28 24 -23 32 -73 23 -131 -24 -56 -46 -70 -76 -53 -120
7 -21 7 -28 -1 -29 -7 0 -3 -5 8 -10 14 -7 9 -7 -20 -3 -22 4 -57 6 -77 6 -20
-1 -40 3 -43 8 -3 6 -18 10 -33 10 -28 0 -67 22 -89 50 -31 39 2 129 57 157
23 12 23 13 4 13 -38 0 -100 -97 -88 -138 5 -14 3 -13 -7 2 -9 15 -9 30 1 72
7 30 18 54 23 54 5 0 16 8 23 18 9 12 25 17 59 16 44 -1 46 0 24 12 -19 10
-20 13 -6 14 9 0 26 -9 37 -20 13 -13 22 -16 26 -8 20 32 -70 50 -116 23 -36
-21 -40 -19 -40 23 0 29 3 34 11 22 9 -12 10 -11 6 8 -3 12 -1 22 4 22 5 0 9
7 9 16 0 51 108 125 202 138 26 4 50 11 53 17 4 5 18 10 33 10 18 1 21 3 9 6
-10 3 -31 0 -47 -6 -17 -5 -30 -6 -30 -1 0 11 76 24 90 15 6 -4 27 -8 48 -11
29 -3 33 -2 20 7 -44 26 2 82 77 93 29 5 35 4 20 -3 -20 -10 -20 -10 0 -10 11
-1 26 -5 33 -10 11 -7 10 -9 -3 -14 -9 -4 -13 -3 -10 3 8 12 -5 13 -23 1 -10
-6 -9 -10 7 -14 12 -3 25 -16 30 -29 6 -13 10 -17 10 -7 1 8 -5 21 -11 28 -11
11 -10 13 1 9 8 -2 19 -25 26 -51 6 -25 8 -44 3 -41 -4 3 -9 13 -9 22 -1 14
-17 -66 -21 -105 -1 -7 -5 -10 -9 -8 -3 3 -13 -2 -20 -11 -7 -9 -24 -20 -37
-25 -14 -5 -22 -12 -19 -15 3 -3 15 0 27 6 18 10 24 9 31 -1 5 -9 19 11 44 64
19 43 35 85 35 93 0 7 7 14 16 14 8 0 12 -4 9 -10 -4 -6 4 -9 17 -7 18 1 25
-5 35 -33 6 -19 12 -50 12 -67 1 -26 -5 -35 -29 -48 -40 -21 -90 -91 -89 -124
1 -25 2 -25 8 4 l7 30 6 -37 c9 -52 35 -78 72 -71 l29 6 -34 11 c-32 11 -34
14 -33 58 0 30 -4 45 -10 40 -6 -3 -5 2 3 11 14 18 26 23 17 8 -4 -5 0 -12 6
-15 10 -5 10 -7 1 -12 -7 -3 -9 -12 -6 -20 4 -11 10 -7 21 17 18 37 66 69 102
68 l25 0 -23 -10 c-13 -5 -21 -13 -17 -19 3 -5 0 -7 -8 -4 -14 5 -40 -18 -43
-40 -1 -6 -5 -24 -8 -41 -7 -29 -7 -29 13 6 24 43 56 73 45 43 -5 -12 1 -9 16
9 30 37 67 52 88 35 13 -11 14 -10 10 2 -2 8 -20 20 -39 27 l-34 12 40 0 c47
1 93 -25 76 -42 -17 -17 -13 -33 8 -33 11 0 17 4 15 8 -9 14 7 49 19 42 7 -4
-3 8 -21 26 -18 17 -31 37 -29 43 2 7 23 27 46 45 23 17 38 32 33 32 -12 0
-63 -39 -79 -61 -12 -16 -73 -32 -73 -19 0 13 56 58 99 80 46 23 123 31 155
16 14 -7 17 -6 12 2 -10 17 70 99 111 113 19 6 45 9 58 6 14 -2 22 0 19 4 -7
12 1 11 41 -5 19 -8 35 -12 35 -9 0 3 7 0 15 -7 9 -8 15 -30 15 -59 0 -54 -12
-76 -34 -68 -37 14 -130 -47 -152 -99 -17 -40 -17 -44 -4 -44 6 0 10 9 10 20
0 31 58 88 102 102 36 11 41 10 51 -7 9 -16 12 -13 28 26 10 24 18 58 18 74 1
34 -24 77 -42 74 -7 -1 -25 3 -42 10 -81 34 -171 4 -220 -72 -16 -25 -34 -46
-39 -46 -5 -1 -3 6 4 14 13 16 4 23 -37 29 -10 2 -17 11 -17 20 1 10 -2 49 -7
88 -12 96 1 139 59 199 68 69 141 92 222 69 51 -15 59 -22 53 -51 -4 -20 -13
-28 -36 -33 -18 -4 -48 -17 -68 -30 -29 -19 -38 -33 -43 -65 -7 -43 14 -101
35 -101 5 0 3 10 -5 22 -19 27 -21 58 -3 58 9 0 9 2 0 8 -10 7 -10 12 0 25 20
27 40 7 27 -27 -5 -15 -10 -33 -9 -39 0 -7 7 5 15 27 7 21 11 42 8 47 -3 5 9
9 25 9 38 0 40 -13 5 -29 -15 -6 -24 -14 -22 -17 3 -2 18 2 33 10 15 8 35 12
44 9 10 -4 8 2 -7 17 -19 18 -31 21 -63 17 -40 -5 -52 5 -21 18 26 12 91 14
98 4 3 -5 10 -7 15 -4 5 4 12 -1 15 -9 6 -15 34 -23 34 -10 0 4 -12 18 -27 32
-18 16 -23 27 -15 30 7 2 10 7 7 11 -8 14 45 115 76 143 37 34 72 46 136 47
41 1 57 -4 77 -23z m81 -265 c-7 -23 -30 -28 -41 -9 -4 7 -3 8 4 4 8 -4 12 0
12 12 0 10 3 22 7 26 12 12 25 -11 18 -33z m-720 -236 c-16 -8 -38 -14 -48
-15 -10 0 -36 -9 -57 -20 -22 -11 -39 -16 -38 -11 2 5 -1 11 -6 12 -5 2 -10
-4 -12 -15 -1 -10 -8 -24 -14 -30 -16 -16 -8 28 9 48 10 12 17 13 27 5 9 -7
20 -6 40 7 14 10 45 21 68 25 60 10 64 9 31 -6z m-195 -152 c-36 -4 -58 -11
-124 -44 -46 -22 -58 -19 -20 5 41 28 96 45 139 44 39 -1 39 -1 5 -5z m-387
-211 c16 -17 15 -20 -12 -40 -22 -16 -31 -18 -40 -9 -21 21 -53 -30 -49 -75 3
-31 0 -38 -12 -36 -29 6 -23 54 10 92 18 20 27 36 21 36 -6 0 -18 -12 -27 -26
-13 -19 -19 -22 -26 -12 -7 9 -8 8 -4 -6 4 -10 1 -25 -5 -33 -9 -10 -9 -20 0
-41 10 -25 10 -26 -4 -8 -25 33 -19 73 18 109 17 17 31 34 30 38 -1 4 6 5 17
2 11 -3 18 -9 15 -12 -2 -4 9 -8 25 -8 37 0 30 12 -12 21 -26 5 -30 9 -18 16
24 15 55 12 73 -8z m-516 -51 c9 -11 20 -18 25 -15 4 3 8 1 8 -5 0 -6 10 -20
22 -31 19 -17 20 -22 8 -30 -16 -10 -4 -16 95 -46 l60 -18 -83 -9 c-81 -9
-105 -5 -166 31 -5 3 -6 0 -2 -6 11 -18 -9 -14 -34 6 -13 11 -23 30 -24 49 -1
18 -4 35 -8 38 -4 4 -5 -14 -4 -39 2 -30 -1 -45 -8 -43 -6 2 -11 16 -11 30 1
14 -3 23 -7 21 -18 -11 -6 14 17 36 13 12 22 26 20 31 -15 24 71 24 92 0z"/>
<path d="M1775 1088 c-50 -27 -105 -96 -105 -130 0 -7 9 5 20 28 26 52 56 80
105 98 23 9 32 15 20 15 -11 0 -29 -5 -40 -11z"/>
<path d="M2080 1078 c0 -4 5 -10 10 -13 6 -4 18 -25 27 -46 8 -22 17 -38 20
-35 2 2 -3 21 -12 41 -8 21 -13 40 -10 43 8 8 16 -3 31 -45 l15 -38 -6 34 c-6
42 -30 70 -56 68 -10 -1 -19 -5 -19 -9z"/>
<path d="M1803 1031 c-30 -19 -91 -107 -81 -117 3 -2 11 9 18 26 17 41 75 90
106 90 14 0 22 4 19 10 -9 15 -26 12 -62 -9z"/>
<path d="M2256 808 c9 -57 14 -61 14 -10 0 22 -5 44 -10 47 -7 4 -8 -8 -4 -37z"/>
<path d="M1963 760 c42 -4 72 -12 78 -21 6 -9 9 -10 9 -2 0 21 -37 33 -97 32
l-58 -2 68 -7z"/>
<path d="M1910 720 c-11 -7 -6 -10 21 -10 19 0 40 -5 47 -12 8 -8 12 -8 12 -1
0 6 -14 16 -31 22 -38 13 -31 13 -49 1z"/>
<path d="M1695 690 c-4 -6 6 -10 23 -10 24 0 32 -6 41 -30 12 -35 26 -41 15
-7 -14 46 -62 75 -79 47z"/>
<path d="M1413 671 c-23 -11 -48 -30 -56 -43 -19 -29 -30 -88 -17 -88 6 0 10
9 10 19 0 26 52 65 113 85 26 9 51 15 55 15 4 -1 15 -1 26 0 15 1 16 4 6 16
-17 21 -86 19 -137 -4z m67 -7 c-30 -8 -72 -28 -92 -45 -41 -32 -52 -24 -15
12 32 31 76 48 122 48 l40 0 -55 -15z"/>
<path d="M754 652 c15 -18 18 -32 13 -77 -7 -65 9 -75 18 -11 8 48 -9 96 -35
104 -11 4 -10 -1 4 -16z"/>
<path d="M1675 661 c-3 -5 5 -11 17 -13 15 -2 24 -11 26 -25 2 -13 7 -23 12
-23 6 0 5 12 -1 27 -14 38 -41 54 -54 34z"/>
<path d="M1885 619 c-91 -45 -110 -58 -113 -73 -3 -12 4 -9 24 9 15 14 39 28
53 31 14 3 37 10 51 14 50 18 98 21 138 11 142 -39 86 -249 -68 -255 -22 0
-40 -4 -40 -8 0 -11 79 -30 103 -25 14 3 9 5 -12 6 -37 1 -33 14 8 26 18 6 22
4 15 -6 -6 -10 -2 -10 16 2 13 8 36 40 52 70 48 91 26 169 -59 205 -45 20
-121 16 -168 -7z"/>
<path d="M1526 615 c-57 -16 -121 -58 -145 -95 -11 -18 -2 -13 30 16 49 45 88
69 96 61 2 -3 -4 -10 -15 -16 -12 -6 -31 -26 -43 -43 -21 -31 -19 -30 22 8 52
49 78 64 114 64 15 0 24 4 20 10 -8 12 -17 12 -79 -5z"/>
<path d="M2372 597 c14 -7 36 -21 47 -31 12 -11 21 -15 21 -9 0 17 -33 41 -65
47 l-30 6 27 -13z"/>
<path d="M1245 568 c-48 -25 -68 -75 -40 -98 12 -10 15 -10 15 4 0 8 14 23 31
31 17 9 28 19 25 23 -4 3 -20 -5 -37 -17 -17 -13 -33 -20 -37 -17 -10 11 34
60 59 66 13 3 19 9 14 12 -6 4 -19 2 -30 -4z"/>
<path d="M1970 543 c25 -23 31 -37 32 -75 1 -27 6 -48 10 -48 14 0 21 71 9 96
-16 36 -14 38 17 18 23 -15 25 -15 13 -1 -12 15 -70 37 -99 37 -7 0 1 -12 18
-27z"/>
<path d="M694 529 c-30 -33 -63 -42 -90 -24 -14 9 -24 11 -24 5 0 -21 47 -34
79 -20 31 13 68 47 59 55 -3 3 -13 -4 -24 -16z"/>
<path d="M395 479 c-20 -18 -33 -34 -31 -37 3 -3 24 12 46 32 22 20 36 36 30
36 -5 0 -25 -14 -45 -31z"/>
<path d="M1670 496 c-81 -30 -130 -58 -178 -101 -29 -26 -52 -54 -52 -62 0 -9
14 3 30 25 29 40 55 57 44 28 -3 -8 14 5 38 28 52 49 137 84 165 66 16 -10 14
-11 -8 -6 -19 4 -37 -2 -65 -23 -46 -33 -92 -81 -78 -81 5 0 15 9 22 20 13 21
89 80 104 80 5 0 -20 -27 -54 -61 -35 -33 -49 -52 -33 -41 17 11 43 34 59 51
16 17 45 35 65 41 20 6 46 16 58 22 17 8 26 8 38 -2 18 -15 21 0 3 18 -16 16
-113 14 -158 -2z"/>
<path d="M521 434 c-2 -35 39 -64 91 -64 47 0 106 16 123 33 7 7 3 8 -10 3
-100 -37 -175 -28 -194 23 -8 22 -10 23 -10 5z"/>
<path d="M2638 418 c45 -22 71 -60 64 -92 -2 -11 0 -16 7 -12 15 9 13 47 -2
67 -17 22 -78 59 -97 58 -8 0 4 -9 28 -21z"/>
<path d="M500 349 c0 -10 66 -31 84 -27 8 2 -7 10 -35 19 -27 8 -49 12 -49 8z"/>
<path d="M1298 351 c23 -4 47 -12 53 -18 17 -17 13 -82 -7 -104 -9 -10 -15
-21 -12 -24 10 -10 39 33 44 66 9 52 -25 89 -79 88 l-42 -2 43 -6z"/>
<path d="M2631 332 c0 -18 -6 -42 -11 -53 -7 -13 -7 -19 -1 -19 14 0 24 41 18
76 -4 28 -4 28 -6 -4z"/>
<path d="M2549 288 c2 -38 6 -47 11 -33 8 22 2 85 -9 85 -3 0 -4 -24 -2 -52z"/>
<path d="M2150 320 c-11 -7 -8 -10 15 -9 17 0 39 4 50 9 16 7 14 9 -15 9 -19
0 -42 -4 -50 -9z"/>
<path d="M2420 329 c0 -3 9 -23 21 -45 18 -36 19 -36 14 -9 -5 25 -35 71 -35
54z"/>
<path d="M1673 253 c-50 -25 -103 -46 -117 -47 -14 0 -28 -7 -31 -15 -4 -9 0
-11 12 -6 10 4 29 11 43 15 40 12 153 66 175 84 29 23 20 19 -82 -31z"/>
<path d="M2238 293 c23 -2 59 -2 80 0 20 2 1 4 -43 4 -44 0 -61 -2 -37 -4z"/>
<path d="M2833 262 c1 -20 -2 -46 -7 -57 -8 -20 -7 -20 8 -1 17 21 22 81 7 90
-5 3 -9 -11 -8 -32z"/>
<path d="M1201 256 c-23 -16 -41 -36 -41 -43 0 -34 55 -106 83 -109 43 -4 43
-4 27 -14 -21 -13 -39 -12 -20 1 13 9 12 10 -2 5 -10 -3 -30 5 -48 20 -16 14
-30 21 -30 15 0 -6 19 -23 42 -38 34 -23 54 -28 117 -31 48 -2 71 0 63 6 -10
6 2 11 37 16 27 4 53 10 56 15 3 5 -11 5 -32 1 -44 -10 -132 -5 -179 10 -41
14 -74 53 -74 89 0 32 17 52 37 44 8 -3 13 0 11 8 -2 10 9 14 39 14 51 0 47
12 -6 17 -32 3 -48 -3 -80 -26z"/>
<path d="M322 258 c-14 -14 -16 -84 -2 -93 6 -4 7 5 4 23 -3 16 -1 39 6 52 13
25 9 35 -8 18z"/>
<path d="M1545 253 c-11 -3 -24 -9 -29 -14 -15 -14 14 -10 49 6 29 13 19 17
-20 8z"/>
<path d="M2178 179 c4 -34 0 -46 -24 -71 -22 -24 -24 -28 -8 -20 31 16 44 36
47 70 1 16 5 28 10 25 13 -8 7 -71 -9 -87 -8 -9 -12 -16 -7 -16 35 0 46 95 15
123 -26 24 -28 22 -24 -24z"/>
<path d="M872 175 c-30 -7 -57 -16 -60 -20 -10 -11 67 4 103 20 37 17 25 17
-43 0z"/>
<path d="M1910 178 c0 -17 55 -78 70 -78 5 0 17 -3 27 -6 10 -3 1 4 -20 16
-21 11 -47 35 -57 53 -13 20 -20 26 -20 15z"/>
<path d="M1950 181 c0 -19 45 -41 80 -40 l35 1 -32 8 c-18 4 -44 15 -58 24
-14 9 -25 12 -25 7z"/>
<path d="M1280 165 c0 -3 15 -14 33 -25 22 -14 48 -20 82 -19 l50 2 -58 7
c-32 4 -66 15 -76 24 -17 16 -31 21 -31 11z"/>
<path d="M717 153 c-10 -9 -9 -71 1 -77 5 -3 8 15 8 39 -1 25 -1 45 -2 45 0 0
-4 -3 -7 -7z"/>
<path d="M1598 155 c-3 -3 -36 -8 -73 -10 -38 -3 -71 -8 -74 -11 -9 -10 140 3
169 15 22 9 23 10 4 10 -11 1 -23 -1 -26 -4z"/>
<path d="M2082 113 c-24 -14 -41 -27 -39 -30 6 -6 84 34 92 47 9 15 -6 10 -53
-17z"/>
<path d="M775 89 c26 -10 115 -11 115 -1 0 4 -30 8 -68 8 -42 1 -60 -2 -47 -7z"/>
<path d="M870 70 l-75 -6 75 -1 c41 -1 84 2 95 7 20 9 20 9 0 7 -11 0 -54 -3
-95 -7z"/>
<path d="M95 210 c-3 -5 -3 -10 2 -10 4 0 3 -4 -2 -8 -6 -4 -8 -20 -4 -37 l7
-30 1 31 c0 16 6 35 12 41 7 7 7 13 1 17 -6 3 -13 2 -17 -4z"/>
<path d="M790 1135 c130 -67 149 -75 115 -49 -29 22 -212 114 -227 114 -7 -1
43 -30 112 -65z"/>
<path d="M1005 1025 c37 -29 147 -96 152 -92 2 3 -19 19 -47 37 -71 46 -54 50
20 5 33 -20 65 -35 72 -33 6 2 -19 21 -57 42 -37 20 -74 35 -82 32 -8 -3 -29
1 -46 9 -29 14 -30 14 -12 0z"/>
<path d="M931 955 c8 -7 229 -85 244 -85 24 0 -18 20 -100 48 -96 33 -154 48
-144 37z"/>
<path d="M500 819 c-56 -33 -130 -131 -130 -171 0 -7 9 5 19 27 27 58 86 122
126 136 19 7 35 17 35 21 0 13 -12 9 -50 -13z"/>
<path d="M1070 826 c0 -9 65 -36 85 -36 28 0 15 17 -17 23 -18 3 -41 8 -50 12
-10 4 -18 4 -18 1z"/>
<path d="M810 810 c0 -5 9 -10 19 -10 19 0 34 -31 44 -90 3 -17 5 -13 6 13 1
39 -13 76 -33 89 -16 11 -36 10 -36 -2z"/>
<path d="M477 722 c-15 -15 -27 -35 -27 -43 0 -7 8 -2 18 14 10 15 27 34 38
42 10 8 14 15 8 15 -5 0 -22 -13 -37 -28z"/>
<path d="M1105 693 c-16 -3 -34 -9 -39 -13 -10 -10 57 -2 89 11 20 8 20 8 0 7
-11 -1 -33 -3 -50 -5z"/>
<path d="M1148 675 c-3 -3 -32 -9 -64 -14 l-59 -9 56 -1 c30 0 59 3 65 8 5 5
18 11 29 14 19 5 19 5 -1 6 -11 0 -23 -1 -26 -4z"/>
</g>
</svg>
