<?xml version="1.0" standalone="no"?>
<!DOCTYPE svg PUBLIC "-//W3C//DTD SVG 20010904//EN"
 "http://www.w3.org/TR/2001/REC-SVG-20010904/DTD/svg10.dtd">
<svg version="1.0" xmlns="http://www.w3.org/2000/svg"
 width="225.000000pt" height="225.000000pt" viewBox="0 0 225.000000 225.000000"
 preserveAspectRatio="xMidYMid meet">
<metadata>
Created by potrace 1.10, written by Peter Selinger 2001-2011
</metadata>
<g transform="translate(0.000000,225.000000) scale(0.100000,-0.100000)"
fill="#000000" stroke="none">
<path d="M1123 2046 c-57 -19 -105 -49 -145 -94 l-34 -38 -50 13 c-186 51
-374 -99 -374 -297 0 -50 -3 -60 -20 -65 -69 -22 -123 -110 -123 -200 0 -54
-3 -64 -33 -97 -87 -97 -58 -249 59 -310 39 -20 59 -22 277 -25 l235 -3 7 -26
c11 -42 55 -91 101 -113 42 -20 56 -21 478 -21 401 0 437 2 475 19 67 31 124
117 124 189 0 32 -45 127 -68 143 -15 11 -21 30 -26 84 -20 231 -30 267 -94
337 -29 32 -41 55 -46 88 -22 151 -147 262 -297 264 l-67 1 -47 53 c-65 72
-130 104 -220 108 -41 2 -87 -2 -112 -10z m232 -61 c42 -26 95 -82 122 -129 6
-11 18 -12 58 -3 136 28 277 -83 292 -230 5 -47 11 -61 36 -82 39 -33 75 -91
86 -141 10 -46 9 -47 -27 -21 -44 30 -101 44 -161 38 l-56 -5 -30 41 c-65 89
-176 115 -273 65 -41 -21 -52 -24 -56 -12 -8 22 -94 72 -135 79 -20 3 -55 2
-77 -3 -41 -9 -41 -9 -75 36 -50 67 -89 87 -174 87 -85 0 -124 -20 -174 -87
-32 -43 -36 -45 -65 -37 -17 5 -43 9 -58 9 -27 0 -28 2 -28 54 0 66 19 114 67
167 74 81 194 111 286 71 l46 -21 21 34 c26 43 73 82 125 107 31 14 58 18 121
16 70 -3 87 -7 129 -33z m-378 -333 c27 -15 68 -67 82 -104 10 -27 11 -27 45
-13 48 20 114 19 155 -3 68 -37 115 -136 97 -206 -3 -13 -22 -45 -41 -70 -19
-25 -33 -46 -30 -46 2 0 21 14 41 32 41 36 54 33 92 -22 49 -73 14 -188 -72
-229 -43 -21 -52 -22 -473 -19 l-429 3 -37 25 c-43 29 -77 91 -77 139 0 46 27
97 65 127 31 24 32 26 23 64 -6 22 -7 56 -4 75 8 40 64 108 107 131 36 18 100
18 146 -1 19 -8 37 -15 38 -15 2 0 6 14 10 31 10 47 75 106 127 116 46 10 100
4 135 -15z m631 -178 c20 -17 46 -49 57 -72 14 -29 25 -41 35 -38 79 27 99 29
140 17 90 -27 153 -129 132 -214 -10 -38 -9 -40 33 -80 34 -34 45 -51 50 -88
9 -60 -19 -126 -66 -160 l-34 -24 -446 -3 -445 -3 -34 23 c-33 22 -80 81 -80
99 0 5 84 9 188 9 161 0 193 3 228 19 116 53 147 213 59 310 -29 32 -34 44
-32 82 1 24 -2 61 -7 81 -8 38 -8 38 35 58 63 30 137 23 187 -16z"/>
<path d="M483 881 c-7 -11 -40 -38 -73 -61 -62 -42 -90 -81 -90 -124 0 -63 47
-106 116 -106 45 0 97 48 113 105 14 50 14 145 1 179 -12 32 -50 35 -67 7z
m37 -96 c0 -85 -41 -155 -92 -155 -57 0 -87 65 -50 109 18 22 121 99 135 100
4 1 7 -24 7 -54z"/>
<path d="M946 765 c-9 -13 -40 -40 -69 -59 -69 -43 -97 -79 -97 -123 0 -128
158 -154 216 -37 24 48 27 201 5 227 -19 24 -36 21 -55 -8z m19 -182 c-27 -71
-78 -92 -122 -51 -44 41 -20 95 62 143 24 14 49 33 57 42 21 26 23 -80 3 -134z"/>
<path d="M1830 720 c-6 -11 -37 -38 -69 -60 -77 -51 -101 -83 -101 -131 0 -79
83 -130 157 -95 47 22 83 100 83 179 0 97 -41 161 -70 107z m30 -102 c-1 -120
-75 -194 -137 -136 -45 42 -23 87 72 153 28 18 53 34 58 34 4 1 7 -23 7 -51z"/>
<path d="M1486 656 c-9 -14 -40 -41 -70 -60 -29 -19 -63 -47 -75 -64 -37 -53
-22 -131 30 -158 102 -52 189 36 189 192 0 96 -39 143 -74 90z m34 -98 c0 -66
-30 -134 -65 -150 -59 -27 -116 33 -84 90 13 24 123 111 142 112 4 0 7 -24 7
-52z"/>
<path d="M643 515 c-21 -19 -58 -50 -83 -68 -24 -18 -53 -47 -63 -65 -17 -29
-18 -39 -8 -72 21 -71 93 -100 160 -65 43 22 74 95 75 174 2 125 -20 151 -81
96z m47 -65 c0 -99 -44 -180 -98 -180 -57 0 -85 68 -46 112 21 22 124 97 137
97 4 1 7 -12 7 -29z"/>
<path d="M1180 481 c-6 -11 -38 -39 -71 -62 -75 -51 -102 -90 -95 -142 9 -76
83 -116 153 -83 66 31 104 168 75 271 -10 37 -45 46 -62 16z m30 -108 c0 -106
-65 -178 -124 -140 -36 24 -44 62 -19 95 19 25 120 101 136 102 4 0 7 -26 7
-57z"/>
</g>
</svg>
