<?xml version="1.0" standalone="no"?>
<!DOCTYPE svg PUBLIC "-//W3C//DTD SVG 20010904//EN"
 "http://www.w3.org/TR/2001/REC-SVG-20010904/DTD/svg10.dtd">
<svg version="1.0" xmlns="http://www.w3.org/2000/svg"
 width="225.000000pt" height="225.000000pt" viewBox="0 0 225.000000 225.000000"
 preserveAspectRatio="xMidYMid meet">
<metadata>
Created by potrace 1.10, written by Peter Selinger 2001-2011
</metadata>
<g transform="translate(0.000000,225.000000) scale(0.100000,-0.100000)"
fill="#000000" stroke="none">
<path d="M774 2171 c-111 -32 -174 -69 -259 -155 -116 -117 -174 -250 -175
-399 0 -46 -3 -59 -17 -63 -108 -31 -225 -130 -275 -231 -30 -62 -50 -163 -31
-163 5 0 10 -13 11 -30 1 -17 -3 -30 -9 -30 -21 0 -2 -109 30 -175 40 -80 129
-166 218 -208 l68 -32 198 -3 199 -4 -4 24 c-3 23 -4 23 -188 28 -182 5 -186
6 -252 37 -250 118 -310 442 -117 635 50 50 126 94 186 106 l38 8 -3 60 c-5
84 21 192 65 276 103 198 326 312 546 280 215 -31 397 -197 447 -410 9 -40 16
-52 27 -48 73 28 196 10 262 -38 51 -38 99 -111 111 -171 l11 -54 57 -12 c75
-15 125 -41 176 -92 149 -150 126 -398 -48 -516 -76 -52 -94 -55 -371 -61
l-260 -5 -3 -23 -4 -23 279 3 278 3 60 29 c111 55 199 170 212 277 4 34 2 54
-8 65 -11 14 -11 18 -2 21 19 7 16 75 -7 135 -45 120 -158 214 -292 242 -21 5
-28 12 -28 29 0 41 -50 125 -101 171 -67 61 -144 88 -230 84 l-67 -3 -17 59
c-23 75 -101 192 -168 251 -66 58 -167 111 -248 130 -85 20 -218 18 -295 -4z"/>
<path d="M948 889 c-10 -5 -18 -14 -18 -19 0 -5 21 -39 46 -75 l46 -65 -80 0
c-59 0 -83 -4 -92 -15 -21 -25 -1 -34 87 -37 l82 -3 -46 -68 c-44 -63 -46 -69
-30 -84 21 -21 33 -11 84 68 21 32 40 59 43 59 3 -1 24 -32 48 -70 44 -71 60
-82 81 -56 9 11 2 28 -34 81 -25 37 -45 69 -45 71 0 2 39 4 86 4 83 0 85 1 82
23 -3 20 -9 22 -86 25 l-82 3 38 57 c55 81 54 79 36 97 -21 20 -30 12 -84 -70
l-42 -64 -49 74 c-27 41 -50 75 -51 75 -2 0 -11 -5 -20 -11z m168 -164 c16
-24 15 -27 0 -44 -34 -37 -125 -4 -100 37 6 9 26 20 45 23 19 4 35 7 36 8 2 0
10 -10 19 -24z"/>
<path d="M443 443 c-22 -8 -14 -36 27 -98 l40 -60 -83 -5 c-76 -5 -82 -7 -85
-27 -3 -22 -1 -23 82 -23 47 0 86 -2 86 -5 0 -4 -18 -32 -41 -64 -41 -59 -47
-93 -18 -99 11 -2 31 20 60 67 24 39 47 69 51 68 3 -1 26 -31 50 -67 43 -66
73 -85 84 -55 4 10 -11 42 -40 85 l-46 70 84 0 c86 0 101 6 90 34 -5 13 -23
16 -91 16 -66 0 -84 -3 -80 -13 17 -44 -59 -71 -96 -34 -18 18 -18 19 -1 38
14 15 29 19 58 17 39 -2 42 -1 84 60 45 64 49 92 13 92 -13 0 -34 -23 -64 -70
l-45 -70 -42 64 c-47 72 -59 85 -77 79z"/>
<path d="M1343 443 c-22 -8 -14 -36 27 -98 l40 -60 -83 -5 c-76 -5 -82 -7 -85
-27 -3 -22 -1 -23 82 -23 47 0 86 -2 86 -5 0 -2 -18 -30 -40 -62 -41 -58 -48
-95 -19 -101 11 -2 31 20 60 67 24 39 47 69 51 68 3 -1 26 -31 50 -67 43 -66
73 -85 84 -55 4 10 -11 42 -40 85 l-46 70 84 0 c86 0 101 6 90 34 -5 13 -23
16 -90 16 l-83 0 45 65 c47 66 51 95 15 95 -13 0 -34 -23 -64 -70 l-45 -70
-42 64 c-47 72 -59 85 -77 79z m167 -168 c10 -13 11 -20 1 -39 -15 -28 -69
-30 -96 -3 -17 17 -17 19 0 37 22 24 77 27 95 5z"/>
</g>
</svg>
